<svg width="32" height="32" viewBox="0 0 32 32" fill="none" xmlns="http://www.w3.org/2000/svg">
<path d="M25.6933 7.10659C23.92 6.27992 22 5.67992 20 5.33325C19.9648 5.33375 19.9313 5.34813 19.9067 5.37325C19.6667 5.81325 19.3867 6.38659 19.2 6.82659C17.0787 6.50679 14.9213 6.50679 12.8 6.82659C12.6133 6.37325 12.3333 5.81325 12.08 5.37325C12.0667 5.34659 12.0267 5.33325 11.9867 5.33325C9.98667 5.67992 8.08 6.27992 6.29333 7.10659C6.28 7.10659 6.26667 7.11992 6.25333 7.13325C2.62667 12.5599 1.62667 17.8399 2.12 23.0666C2.12 23.0933 2.13333 23.1199 2.16 23.1333C4.56 24.8933 6.86667 25.9599 9.14667 26.6666C9.18667 26.6799 9.22667 26.6666 9.24 26.6399C9.77333 25.9066 10.2533 25.1333 10.6667 24.3199C10.6933 24.2666 10.6667 24.2133 10.6133 24.1999C9.85333 23.9066 9.13333 23.5599 8.42667 23.1599C8.37333 23.1333 8.37333 23.0533 8.41333 23.0133C8.56 22.9066 8.70667 22.7866 8.85333 22.6799C8.88 22.6533 8.92 22.6533 8.94667 22.6666C13.5333 24.7599 18.48 24.7599 23.0133 22.6666C23.04 22.6533 23.08 22.6533 23.1067 22.6799C23.2533 22.7999 23.4 22.9066 23.5467 23.0266C23.6 23.0666 23.6 23.1466 23.5333 23.1733C22.84 23.5866 22.1067 23.9199 21.3467 24.2133C21.2933 24.2266 21.28 24.2933 21.2933 24.3333C21.72 25.1466 22.2 25.9199 22.72 26.6533C22.76 26.6666 22.8 26.6799 22.84 26.6666C25.1333 25.9599 27.44 24.8933 29.84 23.1333C29.8667 23.1199 29.88 23.0933 29.88 23.0666C30.4667 17.0266 28.9067 11.7866 25.7467 7.13325C25.7333 7.11992 25.72 7.10659 25.6933 7.10659ZM11.36 19.8799C9.98667 19.8799 8.84 18.6133 8.84 17.0533C8.84 15.4933 9.96 14.2266 11.36 14.2266C12.7733 14.2266 13.8933 15.5066 13.88 17.0533C13.88 18.6133 12.76 19.8799 11.36 19.8799ZM20.6533 19.8799C19.28 19.8799 18.1333 18.6133 18.1333 17.0533C18.1333 15.4933 19.2533 14.2266 20.6533 14.2266C22.0667 14.2266 23.1867 15.5066 23.1733 17.0533C23.1733 18.6133 22.0667 19.8799 20.6533 19.8799Z" fill="#E67300"/>
</svg>
