<svg width="32" height="32" viewBox="0 0 32 32" fill="none" xmlns="http://www.w3.org/2000/svg">
<path d="M25.4 6.54658C24.1774 5.31205 22.7214 4.3332 21.1167 3.66706C19.512 3.00092 17.7908 2.66082 16.0533 2.66658C8.77333 2.66658 2.84 8.59991 2.84 15.8799C2.84 18.2132 3.45333 20.4799 4.6 22.4799L2.73333 29.3332L9.73333 27.4932C11.6667 28.5466 13.84 29.1066 16.0533 29.1066C23.3333 29.1066 29.2667 23.1732 29.2667 15.8932C29.2667 12.3599 27.8933 9.03991 25.4 6.54658ZM16.0533 26.8666C14.08 26.8666 12.1467 26.3332 10.4533 25.3332L10.0533 25.0932L5.89333 26.1866L7 22.1332L6.73333 21.7199C5.63673 19.9693 5.05457 17.9456 5.05333 15.8799C5.05333 9.82658 9.98667 4.89324 16.04 4.89324C18.9733 4.89324 21.7333 6.03991 23.8 8.11991C24.8235 9.13839 25.6346 10.35 26.1862 11.6843C26.7378 13.0187 27.0189 14.4494 27.0133 15.8932C27.04 21.9466 22.1067 26.8666 16.0533 26.8666ZM22.08 18.6532C21.7467 18.4932 20.12 17.6932 19.8267 17.5732C19.52 17.4666 19.3067 17.4132 19.08 17.7332C18.8533 18.0666 18.2267 18.8132 18.04 19.0266C17.8533 19.2532 17.6533 19.2799 17.32 19.1066C16.9867 18.9466 15.92 18.5866 14.6667 17.4666C13.68 16.5866 13.0267 15.5066 12.8267 15.1732C12.64 14.8399 12.8 14.6666 12.9733 14.4932C13.12 14.3466 13.3067 14.1066 13.4667 13.9199C13.6267 13.7332 13.6933 13.5866 13.8 13.3732C13.9067 13.1466 13.8533 12.9599 13.7733 12.7999C13.6933 12.6399 13.0267 11.0132 12.76 10.3466C12.4933 9.70658 12.2133 9.78658 12.0133 9.77324H11.3733C11.1467 9.77324 10.8 9.85324 10.4933 10.1866C10.2 10.5199 9.34667 11.3199 9.34667 12.9466C9.34667 14.5732 10.5333 16.1466 10.6933 16.3599C10.8533 16.5866 13.0267 19.9199 16.3333 21.3466C17.12 21.6932 17.7333 21.8932 18.2133 22.0399C19 22.2932 19.72 22.2532 20.2933 22.1732C20.9333 22.0799 22.2533 21.3732 22.52 20.5999C22.8 19.8266 22.8 19.1732 22.7067 19.0266C22.6133 18.8799 22.4133 18.8132 22.08 18.6532Z" fill="#E67300"/>
</svg>
