<svg width="68" height="44" viewBox="0 0 68 44" fill="none" xmlns="http://www.w3.org/2000/svg">
<g clip-path="url(#clip0_95_554)">
<path d="M3.83774 6.12842C3.83774 6.19488 3.89144 6.24876 3.95767 6.24876H15.1111C15.1773 6.24876 15.231 6.19488 15.231 6.12842V0.954106C15.231 0.754731 15.3921 0.593107 15.5908 0.593107H18.709C18.9077 0.593107 19.0688 0.754732 19.0688 0.954106V15.0331C19.0688 15.2325 18.9077 15.3941 18.709 15.3941H15.5908C15.3921 15.3941 15.231 15.2325 15.231 15.0331V9.97908C15.231 9.91262 15.1773 9.85874 15.1111 9.85874H3.95767C3.89144 9.85874 3.83774 9.91262 3.83774 9.97908V15.0331C3.83774 15.2325 3.67667 15.3941 3.47795 15.3941H0.359788C0.161083 15.3941 0 15.2325 0 15.0331V0.954106C0 0.754731 0.161083 0.593107 0.359788 0.593107H3.47795C3.67667 0.593107 3.83774 0.754732 3.83774 0.954106V6.12842Z" fill="#EBEBFF"/>
<path d="M67.5203 0.593107H64.522C64.2571 0.593107 64.0423 0.808607 64.0423 1.07444V15.0331C64.0423 15.2989 64.2571 15.5144 64.522 15.5144H67.5203C67.7852 15.5144 68 15.2989 68 15.0331V1.07444C68 0.808607 67.7852 0.593107 67.5203 0.593107Z" fill="#EBEBFF"/>
<path fill-rule="evenodd" clip-rule="evenodd" d="M57.6261 4.08277C58.1658 4.08277 58.5725 4.361 58.8854 4.7446C59.2456 5.1864 59.2455 5.57849 59.2452 6.1394V6.23778C59.2455 6.79868 59.2456 7.19077 58.8854 7.63259C58.5725 8.01618 58.2257 8.29442 57.6261 8.29442H52.1693C52.1031 8.29442 52.0494 8.24054 52.0494 8.17408V4.2031C52.0494 4.13664 52.1031 4.08277 52.1693 4.08277H57.6261ZM61.224 1.85661C60.3228 1.0891 59.1262 0.708906 57.806 0.593107H48.5714C48.2403 0.593107 47.9718 0.862482 47.9718 1.19478V14.9127C47.9718 15.245 48.2403 15.5144 48.5714 15.5144H51.4497C51.7809 15.5144 52.0494 15.245 52.0494 14.9127V12.1451C52.0494 11.9457 52.2104 11.7841 52.4092 11.7841H55.5128L58.1058 15.2724C58.219 15.4247 58.3973 15.5144 58.5865 15.5144H61.7271C62.2051 15.5144 62.491 14.9806 62.2272 14.5807L60.0187 11.2324C60.4167 11.0769 60.7834 10.8822 61.1041 10.6409C62.4657 9.61633 63.0829 7.84578 63.0829 6.18859C63.0829 4.65658 62.4104 2.86707 61.224 1.85661Z" fill="#EBEBFF"/>
<path d="M64.522 32L38.7538 21.4046C38.517 21.3073 38.2575 21.4819 38.2575 21.7386V31.3983C38.2575 31.7306 37.989 32 37.6579 32H35.0194C34.6883 32 34.4198 31.7306 34.4198 31.3983V17.6804C34.4198 17.3481 34.6883 17.0787 35.0194 17.0787H37.5979L63.6663 27.7656C63.9031 27.8626 64.1623 27.6879 64.1623 27.4314V17.6804C64.1623 17.3481 64.4308 17.0787 64.7619 17.0787H67.4004C67.7315 17.0787 68 17.3481 68 17.6804V31.3983C68 31.7306 67.7315 32 67.4004 32H64.522Z" fill="#EBEBFF"/>
<path fill-rule="evenodd" clip-rule="evenodd" d="M0 28.975C0 28.9088 0.0271217 28.8456 0.0749945 28.8001L7.74277 21.5196C8.05784 21.2205 7.84683 20.6887 7.41304 20.6887H0.599647C0.268472 20.6887 0 20.4193 0 20.087V17.6804C0 17.3481 0.268472 17.0787 0.599647 17.0787H13.3122C13.6433 17.0787 13.9118 17.3481 13.9118 17.6804V20.2843C13.9118 20.3505 13.8847 20.4136 13.8369 20.4591L6.14036 27.7668C5.90406 27.9912 6.06231 28.39 6.38766 28.39H13.3122C13.6433 28.39 13.9118 28.6594 13.9118 28.9917V31.3983C13.9118 31.7306 13.6433 32 13.3122 32H0.599647C0.268472 32 0 31.7306 0 31.3983V28.975Z" fill="#EBEBFF"/>
<path d="M23.746 16.9584C26.2584 16.9584 28.6502 17.5832 30.2822 18.9718C31.877 20.3289 32.7407 22.4263 32.7407 24.4792C32.7407 26.5321 31.877 28.6295 30.2822 29.9866C28.6502 31.3752 26.2584 32 23.746 32C21.4171 32 19.1671 31.4376 17.5697 30.2234C15.7597 28.8476 14.7513 26.6856 14.7513 24.4792C14.7513 22.6002 15.5477 20.527 16.9101 19.2087C18.5594 17.613 21.0256 16.9584 23.746 16.9584ZM23.746 20.393C22.2739 20.393 20.8292 20.6421 19.9083 21.459C19.0889 22.1858 18.709 23.4168 18.709 24.4792C18.709 25.7357 19.1682 26.9867 20.2681 27.7362C21.1437 28.333 22.513 28.5653 23.746 28.5653C24.979 28.5653 26.2884 28.333 27.164 27.7362C28.2639 26.9867 28.7831 25.7357 28.7831 24.4792C28.7831 23.4611 28.4031 22.2929 27.6437 21.5775C26.72 20.7072 25.2727 20.393 23.746 20.393Z" fill="#EBEBFF"/>
<path d="M23.3968 1.61593C25.7329 0.0582151 29.4101 0.352439 33.1665 0.352439C36.5238 0.352439 40.4174 0.337751 42.6964 1.61593C45.2036 3.02213 45.933 5.82568 45.933 8.05374C45.933 10.1046 44.8631 13.1115 42.6964 14.4916C40.3695 15.9737 36.8175 15.7551 33.1665 15.7551C29.41 15.7551 25.7329 16.0493 23.3968 14.4916C21.3481 13.1254 20.4 10.041 20.4 8.05374C20.4 6.06645 21.3481 2.98204 23.3968 1.61593ZM26.993 3.96242C23.9363 3.96242 23.6366 6.80029 23.6366 8.2944C23.6366 9.93691 24.5956 12.1005 26.993 12.1005H38.6807C41.8573 12.1005 42.6964 9.93691 42.6964 8.2944C42.6964 6.65191 42.3967 3.96242 38.6807 3.96242H26.993Z" fill="#EBEBFF"/>
<path d="M32.282 0.176223L24.6498 7.83416C24.4156 8.06913 24.4156 8.45008 24.6498 8.68505L32.282 16.343C32.5162 16.5779 32.8959 16.5779 33.1301 16.343L40.7623 8.68505C40.9965 8.45008 40.9965 8.06913 40.7623 7.83416L33.1301 0.176224C32.8959 -0.0587411 32.5162 -0.0587412 32.282 0.176223Z" fill="#FF8C00"/>
<path d="M38.6331 37.4966H42.5343L42.76 36.1345H37.2358L35.698 44H41.4594L41.7066 42.6598L37.6342 42.6442L38.0095 40.6824H41.4379L41.6851 39.3202H38.2742L38.6331 37.4966Z" fill="#FF8C00"/>
<path d="M30.7791 37.4966H34.6803L34.906 36.1345H29.3818L27.844 44H33.6054L33.8526 42.6598L29.7802 42.6442L30.1555 40.6824H33.5839L33.8311 39.3202H30.4202L30.7791 37.4966Z" fill="#FF8C00"/>
<path fill-rule="evenodd" clip-rule="evenodd" d="M43.552 43.9671H45.1863L45.5998 41.8718L46.9485 40.698L48.8847 44H50.8318L48.2249 39.5461L52 36.1345H49.9772L46.0133 39.7765L46.7322 36.1345H45.0979L43.552 43.9671Z" fill="#FF8C00"/>
<path d="M27.052 39.8954C27.0087 40.7111 26.8616 43.8655 26.8616 43.8655H25.9517L25.903 42.9734C25.0616 43.5827 24.0082 43.8645 22.8947 43.8645C20.4469 43.8645 19 42.6307 19 40.3165C19 38.0023 21.0997 36 23.5148 36C25.3405 36 26.3485 36.5473 26.8948 37.4002C26.648 37.6213 26.0823 38.0951 25.7559 38.3793C25.6446 38.2639 24.9474 37.4494 23.9466 37.4213C23.2068 37.4005 22.0318 37.4735 21.1432 38.8636C20.8134 39.3795 20.4232 40.9967 21.2377 41.8115C21.9849 42.559 23.5549 42.8432 24.7877 42.18C25.3295 41.8884 25.473 41.6465 25.473 41.0851C25.0923 41.0851 23.7977 41.0851 23.6562 41.0851C23.7106 40.8219 23.8521 40.0217 23.8738 39.8954C24.2872 39.8954 26.8018 39.8954 27.052 39.8954Z" fill="#FF8C00"/>
</g>
<defs>
<clipPath id="clip0_95_554">
<rect width="68" height="44" fill="white"/>
</clipPath>
</defs>
</svg>
